<svg width="40" height="40" viewBox="0 0 40 40" fill="none" xmlns="http://www.w3.org/2000/svg">
<path d="M19.7 27.0998C17.8 27.0998 16 26.3498 14.65 24.9998C11.85 22.1998 11.85 17.6998 14.65 14.9498C16 13.5998 17.8 12.8498 19.7 12.8498C21.6 12.8498 23.4 13.5998 24.75 14.9498C25.15 15.3498 25.15 15.9998 24.75 16.4498C24.35 16.8498 23.7 16.8498 23.25 16.4498C22.3 15.4998 21.05 14.9998 19.7 14.9998C18.35 14.9998 17.1 15.4998 16.15 16.4498C14.2 18.3998 14.2 21.5998 16.15 23.5498C17.1 24.4998 18.35 24.9998 19.7 24.9998C21.05 24.9998 22.3 24.4998 23.25 23.5498C23.65 23.1498 24.3 23.1498 24.75 23.5498C25.15 23.9498 25.15 24.5998 24.75 25.0498C23.35 26.3998 21.6 27.0998 19.7 27.0998ZM19.7 32.1998C12.95 32.1998 7.5 26.6998 7.5 19.9998C7.5 13.2998 12.95 7.7998 19.7 7.7998C26.4 7.7998 31.9 13.2498 31.9 19.9998C31.9 26.7498 26.4 32.1998 19.7 32.1998ZM19.7 9.89981C14.15 9.89981 9.6 14.3998 9.6 19.9998C9.6 25.5998 14.1 30.0998 19.7 30.0998C25.25 30.0998 29.8 25.5998 29.8 19.9998C29.8 14.3998 25.3 9.89981 19.7 9.89981Z" fill="#F1F1F1"/>
</svg>
