<svg width="40" height="40" viewBox="0 0 40 40" fill="none" xmlns="http://www.w3.org/2000/svg">
<path fill-rule="evenodd" clip-rule="evenodd" d="M32.9718 6.53049C33.5526 6.39283 33.9576 6.25748 34.2895 6.11533C34.7545 5.91609 35.1399 5.67743 35.7491 5.27548C36.2609 4.93766 36.917 4.90824 37.4569 5.19888C37.9969 5.48951 38.3338 6.05324 38.3338 6.66651C38.3338 8.46806 38.1093 9.94463 37.5896 11.2441C37.1523 12.3371 36.5379 13.2249 35.8031 14.0329C35.4928 19.6381 33.8703 24.0399 31.3898 27.3747C28.8188 30.8312 25.3981 33.0447 21.7923 34.2844C18.197 35.5202 14.3982 35.7964 10.995 35.3779C7.61405 34.9622 4.48885 33.8429 2.31054 32.1487C1.714 31.6847 1.50431 30.8774 1.79964 30.1817C2.09497 29.4861 2.82139 29.0762 3.56952 29.1832C5.7128 29.4894 7.77595 29.0021 9.47245 28.3054C9.13848 28.1237 8.8236 27.9271 8.53092 27.7244C6.98504 26.6542 5.73779 25.2014 5.1764 24.0786C4.94409 23.6141 4.94169 23.0676 5.16992 22.6011C5.28765 22.3602 5.45982 22.1551 5.66885 21.9986C3.41174 20.1357 2.50044 17.5592 2.50044 15.8332C2.50044 15.3199 2.7369 14.8353 3.14144 14.5195C3.31154 14.3867 3.50337 14.2899 3.70559 14.2317C3.53669 13.7371 3.40562 13.2374 3.30572 12.7537C2.86277 10.6089 2.90209 8.18814 3.38354 6.26229C3.54829 5.60326 4.09652 5.11018 4.76927 5.01594C5.442 4.92173 6.10462 5.24523 6.44409 5.83364C8.23994 8.94644 11.5524 10.8491 14.6352 11.9762C16.0846 12.5061 17.427 12.8438 18.4331 13.0514C18.6503 11.0171 19.2183 9.33941 20.0901 8.00693C21.2403 6.24894 22.8444 5.20883 24.5671 4.74504C27.5383 3.94521 30.8351 4.85644 32.9718 6.53049ZM17.9145 16.3475C16.7726 16.1182 15.2033 15.733 13.4907 15.1069C11.2286 14.2799 8.60192 12.9904 6.40165 10.9929C6.44104 11.3605 6.49694 11.7249 6.57017 12.0795C6.93892 13.8651 7.62412 14.8651 8.2458 15.1759C9.00615 15.5561 9.35852 16.4476 9.06357 17.2449C8.66424 18.3244 7.61394 18.4129 6.65964 18.1744C7.42717 19.3251 8.80674 20.4724 11.1078 20.8559C11.9014 20.9882 12.4873 21.6686 12.5002 22.4731C12.5132 23.2776 11.9496 23.9764 11.1606 24.1342L9.70987 24.4244C9.9318 24.6172 10.1721 24.8064 10.4283 24.9837C11.5898 25.7879 12.7561 26.1347 13.7629 25.8831C14.517 25.6946 15.3012 26.0522 15.6532 26.7454C16.0051 27.4384 15.8312 28.2827 15.2341 28.7802C14.1609 29.6736 12.9075 30.3904 11.6514 30.9852C11.0617 31.2646 10.4027 31.5402 9.68695 31.7829C10.2374 31.9004 10.8102 31.9967 11.4018 32.0696C14.3527 32.4324 17.6373 32.1877 20.7086 31.1321C23.7695 30.0799 26.5986 28.2309 28.7153 25.3854C30.8288 22.5437 32.3038 18.6112 32.5016 13.2716C32.5171 12.8512 32.6911 12.4522 32.9886 12.1548C33.7379 11.4053 34.3573 10.5464 34.6619 9.52391C34.1288 9.69013 33.5284 9.83399 32.8134 9.97069C32.2709 10.0744 31.7125 9.90268 31.322 9.5122C30.0478 8.23798 27.5278 7.40004 25.4336 7.96378C24.4481 8.22909 23.5523 8.80346 22.8794 9.83184C22.1926 10.8818 21.6671 12.5175 21.6671 14.9999C21.6671 15.4715 21.4673 15.9211 21.1173 16.2371C20.2873 16.9862 18.8905 16.5435 17.9145 16.3475Z" fill="white"/>
</svg>
