<svg width="100" height="100" viewBox="0 0 40 40" fill="none" xmlns="http://www.w3.org/2000/svg">
<path d="M35.4056 2H29.7496C29.3036 2 28.6436 2.21 28.3696 2.762C28.0956 3.314 27.7496 4 27.7496 4L17.7496 24L23.7496 36L24.3696 37.238C24.6456 37.788 25.3036 38 25.7496 38H31.4056C32.4056 38 32.3656 37.238 32.1156 36.738L31.7496 36L25.7496 24L35.7496 4L36.1176 3.262C36.3676 2.762 36.4056 2 35.4056 2ZM13.6296 10.762C13.3556 10.21 12.6956 10 12.2496 10H6.5936C5.5936 10 5.6336 10.762 5.8836 11.262L6.2496 12L8.7496 17L4.2496 26L3.8816 26.738C3.6316 27.238 3.5936 28 4.5936 28H10.2496C10.6956 28 11.3556 27.788 11.6316 27.238L12.2496 26L16.7496 17L14.2496 12L13.6296 10.762Z" fill="#D2D2D2"/>
</svg>
